<svg width="1182" height="65" viewBox="0 0 1182 65" fill="none" xmlns="http://www.w3.org/2000/svg">
<path fill-rule="evenodd" clip-rule="evenodd" d="M1040 32.146C1040 15.497 1053.5 2 1070.15 2C1086.79 2 1100.29 15.497 1100.29 32.146C1100.29 48.794 1086.79 62.291 1070.15 62.291C1053.5 62.291 1040 48.794 1040 32.146ZM1071.92 21.906C1071.92 26.583 1075.71 30.375 1080.39 30.375C1085.06 30.375 1088.85 26.583 1088.85 21.906C1088.85 17.228 1085.06 13.437 1080.39 13.437C1075.71 13.437 1071.92 17.228 1071.92 21.906Z" fill="#F86338"/>
<path d="M1112.78 26.5426C1111.64 26.5426 1110.67 26.2986 1109.85 25.8096C1109.04 25.3216 1108.41 24.6396 1107.97 23.7646C1107.53 22.8906 1107.31 21.8786 1107.31 20.7296C1107.31 19.5816 1107.53 18.5666 1107.97 17.6866C1108.41 16.8066 1109.04 16.1196 1109.85 15.6256C1110.67 15.1326 1111.64 14.8856 1112.78 14.8856C1114.13 14.8856 1115.24 15.2206 1116.11 15.8916C1116.97 16.5626 1117.51 17.5046 1117.73 18.7176H1115.46C1115.31 18.1056 1115.02 17.6246 1114.56 17.2766C1114.1 16.9276 1113.5 16.7526 1112.75 16.7526C1111.71 16.7526 1110.89 17.1066 1110.3 17.8156C1109.71 18.5236 1109.42 19.4956 1109.42 20.7296C1109.42 21.9646 1109.71 22.9336 1110.3 23.6366C1110.89 24.3396 1111.71 24.6906 1112.75 24.6906C1113.5 24.6906 1114.1 24.5276 1114.56 24.1996C1115.02 23.8726 1115.31 23.4186 1115.46 22.8386H1117.73C1117.51 23.9986 1116.97 24.9056 1116.11 25.5596C1115.24 26.2146 1114.13 26.5426 1112.78 26.5426Z" fill="#F86338"/>
<path fill-rule="evenodd" clip-rule="evenodd" d="M1123.33 26.5425C1122.56 26.5425 1121.86 26.3655 1121.24 26.0115C1120.63 25.6565 1120.14 25.1655 1119.78 24.5375C1119.42 23.9095 1119.24 23.1825 1119.24 22.3555C1119.24 21.5295 1119.42 20.8025 1119.79 20.1745C1120.15 19.5465 1120.64 19.0555 1121.26 18.7015C1121.88 18.3465 1122.57 18.1695 1123.34 18.1695C1124.11 18.1695 1124.8 18.3465 1125.41 18.7015C1126.03 19.0555 1126.52 19.5465 1126.88 20.1745C1127.24 20.8025 1127.42 21.5295 1127.42 22.3555C1127.42 23.1825 1127.24 23.9095 1126.88 24.5375C1126.52 25.1655 1126.03 25.6565 1125.41 26.0115C1124.78 26.3655 1124.09 26.5425 1123.33 26.5425ZM1123.34 19.9565C1122.8 19.9565 1122.33 20.1585 1121.94 20.5605C1121.54 20.9635 1121.35 21.5615 1121.35 22.3555C1121.35 23.1505 1121.54 23.7485 1121.94 24.1515C1122.33 24.5535 1122.79 24.7545 1123.33 24.7545C1123.87 24.7545 1124.33 24.5535 1124.73 24.1515C1125.13 23.7485 1125.33 23.1505 1125.33 22.3555C1125.33 21.5615 1125.13 20.9635 1124.73 20.5605C1124.33 20.1585 1123.87 19.9565 1123.34 19.9565Z" fill="#F86338"/>
<path d="M1139.14 18.1699C1138.56 18.1699 1138.03 18.2979 1137.54 18.5559C1137.05 18.8139 1136.66 19.1629 1136.37 19.6029C1135.86 18.6479 1134.98 18.1699 1133.75 18.1699C1133.19 18.1699 1132.7 18.2849 1132.27 18.5159C1131.85 18.7469 1131.51 19.0549 1131.25 19.4419L1131.07 18.3629H1129.25V26.3489H1131.31V22.2269C1131.31 21.4979 1131.48 20.9289 1131.82 20.5209C1132.16 20.1129 1132.6 19.9089 1133.15 19.9089C1133.71 19.9089 1134.12 20.0909 1134.39 20.4559C1134.66 20.8209 1134.79 21.3469 1134.79 22.0339V26.3489H1136.85V22.2269C1136.85 21.4979 1137.02 20.9289 1137.36 20.5209C1137.7 20.1129 1138.15 19.9089 1138.7 19.9089C1139.25 19.9089 1139.66 20.0909 1139.92 20.4559C1140.18 20.8209 1140.32 21.3469 1140.32 22.0339V26.3489H1142.38V21.8409C1142.38 20.6389 1142.1 19.7259 1141.54 19.1039C1140.98 18.4819 1140.18 18.1699 1139.14 18.1699Z" fill="#F86338"/>
<path fill-rule="evenodd" clip-rule="evenodd" d="M1151.09 18.7171C1151.68 19.0821 1152.14 19.5811 1152.49 20.2141C1152.83 20.8481 1153 21.5671 1153 22.3721C1153 23.1771 1152.83 23.8931 1152.49 24.5211C1152.14 25.1491 1151.68 25.6431 1151.09 26.0031C1150.5 26.3621 1149.83 26.5421 1149.07 26.5421C1148.47 26.5421 1147.95 26.4301 1147.5 26.2041C1147.05 25.9791 1146.68 25.6621 1146.4 25.2541V29.8911H1144.34V18.3631H1146.18L1146.4 19.5061C1146.66 19.1521 1147 18.8411 1147.42 18.5721C1147.85 18.3041 1148.4 18.1701 1149.07 18.1701C1149.83 18.1701 1150.5 18.3521 1151.09 18.7171ZM1148.64 24.7391C1149.29 24.7391 1149.84 24.5191 1150.27 24.0791C1150.7 23.6391 1150.91 23.0701 1150.91 22.3721C1150.91 21.6741 1150.7 21.1001 1150.27 20.6491C1149.84 20.1991 1149.29 19.9731 1148.64 19.9731C1147.97 19.9731 1147.43 20.1961 1147 20.6411C1146.58 21.0871 1146.37 21.6581 1146.37 22.3561C1146.37 23.0541 1146.58 23.6251 1147 24.0711C1147.43 24.5161 1147.97 24.7391 1148.64 24.7391Z" fill="#F86338"/>
<path fill-rule="evenodd" clip-rule="evenodd" d="M1158.08 21.6315C1156.92 21.6315 1156.05 21.8625 1155.47 22.3235C1154.89 22.7855 1154.6 23.3865 1154.6 24.1265C1154.6 24.5675 1154.7 24.9695 1154.92 25.3345C1155.13 25.6995 1155.46 25.9925 1155.9 26.2125C1156.34 26.4325 1156.91 26.5425 1157.59 26.5425C1158.26 26.5425 1158.8 26.4025 1159.23 26.1235C1159.65 25.8445 1159.98 25.4905 1160.22 25.0605L1160.41 26.3495H1162.16V21.4385C1162.16 20.3975 1161.84 19.5925 1161.18 19.0225C1160.53 18.4545 1159.63 18.1695 1158.49 18.1695C1157.83 18.1695 1157.23 18.2855 1156.69 18.5165C1156.15 18.7475 1155.72 19.0775 1155.38 19.5065C1155.04 19.9355 1154.84 20.4395 1154.79 21.0195H1156.8C1156.88 20.6335 1157.07 20.3405 1157.38 20.1425C1157.69 19.9435 1158.06 19.8445 1158.48 19.8445C1158.94 19.8445 1159.33 19.9735 1159.64 20.2305C1159.95 20.4885 1160.1 20.8905 1160.1 21.4385V21.6315H1158.08ZM1159.44 24.3525C1159.11 24.7385 1158.65 24.9325 1158.06 24.9325C1157.67 24.9325 1157.36 24.8465 1157.12 24.6745C1156.89 24.5025 1156.77 24.2615 1156.77 23.9505C1156.77 23.6605 1156.89 23.4155 1157.12 23.2175C1157.36 23.0195 1157.75 22.9195 1158.3 22.9195H1160.06C1159.97 23.4885 1159.76 23.9665 1159.44 24.3525Z" fill="#F86338"/>
<path d="M1171.95 21.8411V26.3491H1169.89V22.0341C1169.89 21.3471 1169.75 20.8211 1169.47 20.4561C1169.19 20.0911 1168.76 19.9091 1168.17 19.9091C1167.59 19.9091 1167.11 20.1131 1166.74 20.5201C1166.37 20.9291 1166.19 21.4971 1166.19 22.2271V26.3491H1164.13V18.3631H1165.95L1166.11 19.7151C1166.35 19.2431 1166.71 18.8681 1167.18 18.5881C1167.65 18.3091 1168.2 18.1701 1168.83 18.1701C1169.82 18.1701 1170.58 18.4811 1171.13 19.1031C1171.68 19.7261 1171.95 20.6391 1171.95 21.8411Z" fill="#F86338"/>
<path d="M1176.49 25.8179L1174.64 29.8919H1176.83L1181.9 18.3629H1179.71L1177.38 23.9829L1175.14 18.3629H1172.9L1176.01 25.8179H1176.49Z" fill="#F86338"/>
<path d="M1107.02 34.3994H1115.66V36.0574H1112.36V45.6704H1110.3V36.0574H1107.02V34.3994Z" fill="#F86338"/>
<path fill-rule="evenodd" clip-rule="evenodd" d="M1121.67 38.0067C1121.07 37.6627 1120.38 37.4917 1119.59 37.4917C1118.76 37.4917 1118.03 37.6707 1117.41 38.0307C1116.79 38.3897 1116.31 38.8917 1115.96 39.5357C1115.61 40.1807 1115.44 40.9147 1115.44 41.7417C1115.44 42.5577 1115.62 43.2767 1115.97 43.8997C1116.33 44.5227 1116.81 45.0047 1117.44 45.3487C1118.06 45.6927 1118.77 45.8647 1119.58 45.8647C1120.22 45.8647 1120.8 45.7447 1121.31 45.5087C1121.82 45.2727 1122.25 44.9487 1122.6 44.5357C1122.95 44.1217 1123.19 43.6627 1123.34 43.1587H1121.25C1121.11 43.4597 1120.9 43.7037 1120.62 43.8917C1120.33 44.0787 1119.98 44.1727 1119.56 44.1727C1119 44.1727 1118.53 43.9947 1118.14 43.6417C1117.74 43.2877 1117.53 42.7997 1117.48 42.1767H1123.55C1123.56 42.0357 1123.57 41.9037 1123.58 41.7747C1123.58 41.6457 1123.59 41.5227 1123.59 41.4037C1123.59 40.6727 1123.42 40.0107 1123.08 39.4147C1122.74 38.8197 1122.27 38.3507 1121.67 38.0067ZM1117.52 40.8877C1117.62 40.3097 1117.87 39.8757 1118.26 39.5927C1118.64 39.3077 1119.09 39.1647 1119.59 39.1647C1120.12 39.1647 1120.56 39.3217 1120.91 39.6317C1121.27 39.9447 1121.46 40.3627 1121.49 40.8877H1117.52Z" fill="#F86338"/>
<path d="M1128.26 40.5186L1130.27 37.6846H1132.49L1129.58 41.6766L1132.49 45.6706H1130.27L1128.26 42.8366L1126.23 45.6706H1124.02L1126.92 41.6766L1124.02 37.6846H1126.23L1128.26 40.5186Z" fill="#F86338"/>
<path d="M1136.66 35.542H1134.84L1134.6 37.685H1133.23V39.407H1134.6V42.886C1134.6 43.927 1134.85 44.651 1135.35 45.058C1135.86 45.466 1136.53 45.671 1137.37 45.671H1138.77V43.915H1137.77C1137.36 43.915 1137.08 43.843 1136.91 43.698C1136.74 43.554 1136.66 43.288 1136.66 42.901V39.407H1138.82V37.685H1136.66V35.542Z" fill="#F86338"/>
<path d="M1144.47 34.3994H1146.53V44.0594H1151.52V45.6704H1144.47V34.3994Z" fill="#F86338"/>
<path fill-rule="evenodd" clip-rule="evenodd" d="M1158.86 38.0227C1158.24 37.6687 1157.55 37.4917 1156.79 37.4917C1156.01 37.4917 1155.32 37.6687 1154.7 38.0227C1154.08 38.3757 1153.59 38.8677 1153.23 39.4947C1152.86 40.1237 1152.68 40.8507 1152.68 41.6767C1152.68 42.5047 1152.86 43.2317 1153.22 43.8587C1153.58 44.4877 1154.07 44.9777 1154.69 45.3327C1155.3 45.6867 1156 45.8647 1156.77 45.8647C1157.53 45.8647 1158.22 45.6867 1158.85 45.3327C1159.47 44.9777 1159.96 44.4877 1160.32 43.8587C1160.68 43.2317 1160.86 42.5047 1160.86 41.6767C1160.86 40.8507 1160.68 40.1237 1160.32 39.4947C1159.96 38.8677 1159.47 38.3757 1158.86 38.0227ZM1158.17 43.4717C1157.77 43.8757 1157.31 44.0767 1156.77 44.0767C1156.23 44.0767 1155.77 43.8757 1155.38 43.4717C1154.98 43.0697 1154.79 42.4717 1154.79 41.6767C1154.79 40.8837 1154.98 40.2837 1155.38 39.8817C1155.77 39.4797 1156.24 39.2787 1156.79 39.2787C1157.31 39.2787 1157.77 39.4797 1158.17 39.8817C1158.57 40.2837 1158.77 40.8837 1158.77 41.6767C1158.77 42.4717 1158.57 43.0697 1158.17 43.4717Z" fill="#F86338"/>
<path fill-rule="evenodd" clip-rule="evenodd" d="M1163.82 37.8781C1164.31 37.6201 1164.89 37.4911 1165.58 37.4911C1166.03 37.4911 1166.45 37.5561 1166.83 37.6841H1169.86V38.9401L1168.49 39.0361C1168.71 39.4441 1168.81 39.8951 1168.81 40.3901C1168.81 40.9271 1168.68 41.4151 1168.43 41.8541C1168.17 42.2941 1167.8 42.6431 1167.31 42.9011C1166.82 43.1591 1166.24 43.2881 1165.58 43.2881C1165.19 43.2881 1164.83 43.2451 1164.5 43.1591L1163.9 43.7551C1164.08 43.8511 1164.33 43.9311 1164.64 43.9951C1164.95 44.0601 1165.46 44.1241 1166.16 44.1881C1167.22 44.2861 1167.99 44.5381 1168.48 44.9461C1168.96 45.3541 1169.2 45.9171 1169.2 46.6361C1169.2 47.1081 1169.07 47.5581 1168.81 47.9811C1168.56 48.4051 1168.16 48.7491 1167.62 49.0111C1167.08 49.2741 1166.4 49.4051 1165.56 49.4051C1164.42 49.4051 1163.51 49.1941 1162.81 48.7701C1162.11 48.3471 1161.76 47.7101 1161.76 46.8621C1161.76 46.1431 1162.11 45.5201 1162.81 44.9951C1162.59 44.8971 1162.41 44.7961 1162.25 44.6881C1162.1 44.5811 1161.96 44.4681 1161.84 44.3511V43.9791L1163.24 42.4991C1162.62 41.9501 1162.31 41.2491 1162.31 40.3901C1162.31 39.8521 1162.44 39.3641 1162.7 38.9251C1162.97 38.4831 1163.34 38.1361 1163.82 37.8781ZM1165.58 41.7101C1166 41.7101 1166.34 41.5971 1166.62 41.3721C1166.89 41.1451 1167.03 40.8231 1167.03 40.4051C1167.03 39.9871 1166.89 39.6651 1166.62 39.4381C1166.34 39.2141 1166 39.1011 1165.58 39.1011C1165.14 39.1011 1164.78 39.2141 1164.51 39.4381C1164.25 39.6651 1164.11 39.9871 1164.11 40.4051C1164.11 40.8231 1164.25 41.1451 1164.51 41.3721C1164.78 41.5971 1165.14 41.7101 1165.58 41.7101ZM1165.74 45.6061C1165.3 45.5731 1164.89 45.5261 1164.51 45.4621C1164.2 45.6341 1163.98 45.8211 1163.85 46.0241C1163.71 46.2271 1163.65 46.4381 1163.65 46.6531C1163.65 47.0501 1163.83 47.3471 1164.2 47.5461C1164.57 47.7451 1165.02 47.8451 1165.56 47.8451C1166.08 47.8451 1166.5 47.7391 1166.82 47.5301C1167.14 47.3211 1167.3 47.0381 1167.3 46.6841C1167.3 46.3951 1167.19 46.1531 1166.99 45.9601C1166.78 45.7671 1166.36 45.6491 1165.74 45.6061Z" fill="#F86338"/>
<path fill-rule="evenodd" clip-rule="evenodd" d="M1176.95 38.0227C1176.34 37.6687 1175.65 37.4917 1174.88 37.4917C1174.11 37.4917 1173.42 37.6687 1172.8 38.0227C1172.18 38.3757 1171.69 38.8677 1171.33 39.4947C1170.96 40.1237 1170.78 40.8507 1170.78 41.6767C1170.78 42.5047 1170.96 43.2317 1171.32 43.8587C1171.68 44.4877 1172.16 44.9777 1172.78 45.3327C1173.4 45.6867 1174.09 45.8647 1174.87 45.8647C1175.63 45.8647 1176.32 45.6867 1176.95 45.3327C1177.57 44.9777 1178.06 44.4877 1178.42 43.8587C1178.78 43.2317 1178.96 42.5047 1178.96 41.6767C1178.96 40.8507 1178.78 40.1237 1178.42 39.4947C1178.06 38.8677 1177.57 38.3757 1176.95 38.0227ZM1176.27 43.4717C1175.87 43.8757 1175.4 44.0767 1174.87 44.0767C1174.33 44.0767 1173.87 43.8757 1173.48 43.4717C1173.08 43.0697 1172.89 42.4717 1172.89 41.6767C1172.89 40.8837 1173.08 40.2837 1173.48 39.8817C1173.87 39.4797 1174.34 39.2787 1174.88 39.2787C1175.41 39.2787 1175.87 39.4797 1176.27 39.8817C1176.67 40.2837 1176.86 40.8837 1176.86 41.6767C1176.86 42.4717 1176.67 43.0697 1176.27 43.4717Z" fill="#F86338"/>
<path d="M872.482 15.398C873.217 15.663 873.886 16.049 874.489 16.555C875.067 17.085 875.537 17.748 875.899 18.543C876.26 19.339 876.441 20.255 876.441 21.291V34.885C876.441 35.97 876.26 36.898 875.899 37.669C875.537 38.441 875.067 39.079 874.489 39.585C873.886 40.116 873.217 40.514 872.482 40.779C871.747 41.043 871.006 41.176 870.259 41.176C869.511 41.176 868.77 41.043 868.035 40.779C867.3 40.514 866.643 40.116 866.065 39.585C865.462 39.079 864.98 38.441 864.619 37.669C864.257 36.898 864.076 35.97 864.076 34.885V21.291C864.076 20.255 864.257 19.339 864.619 18.543C864.98 17.748 865.462 17.085 866.065 16.555C866.643 16.049 867.3 15.663 868.035 15.398C868.77 15.133 869.511 15 870.259 15C871.006 15 871.747 15.133 872.482 15.398Z" fill="#F86338"/>
<path d="M860.931 35.2103V33.6193H857.243V34.8853C857.243 35.3923 857.171 35.8143 857.026 36.1503C856.882 36.4883 856.701 36.7533 856.484 36.9463C856.243 37.1393 855.983 37.2773 855.706 37.3613C855.429 37.4463 855.17 37.4883 854.929 37.4883C854.085 37.4883 853.501 37.2353 853.176 36.7293C852.85 36.2233 852.687 35.5973 852.687 34.8493V21.6893C852.687 20.8213 852.838 20.1043 853.139 19.5373C853.441 18.9723 854.049 18.6883 854.965 18.6883C855.664 18.6883 856.218 18.9533 856.628 19.4833C857.038 20.0143 857.243 20.6403 857.243 21.3633V22.5933H860.931V21.1473C860.931 20.2553 860.78 19.4293 860.479 18.6703C860.177 17.9103 859.762 17.2543 859.232 16.6993C858.147 15.5663 856.737 15.0003 855.001 15.0003C854.109 15.0003 853.296 15.1503 852.561 15.4523C851.826 15.7543 851.193 16.1693 850.663 16.6993C850.133 17.2303 849.723 17.8563 849.433 18.5793C849.144 19.3033 849 20.0863 849 20.9303V35.1023C849 36.2833 849.186 37.2533 849.56 38.0133C849.933 38.7723 850.41 39.3933 850.988 39.8743C851.567 40.3563 852.218 40.6943 852.941 40.8873C853.664 41.0793 854.374 41.1763 855.074 41.1763C855.893 41.1763 856.659 41.0143 857.369 40.6883C858.08 40.3623 858.701 39.9233 859.232 39.3683C859.762 38.8143 860.177 38.1823 860.479 37.4703C860.78 36.7603 860.931 36.0063 860.931 35.2103Z" fill="#F86338"/>
<path d="M910.824 17.0249C911.451 17.6999 911.885 18.4899 912.125 19.3929C912.367 20.2969 912.486 21.5209 912.486 23.0629C912.486 24.2199 912.42 25.1959 912.289 25.9919C912.156 26.7869 911.873 27.5349 911.439 28.2329C910.934 29.0769 910.258 29.7339 909.414 30.2039C908.57 30.6729 907.461 30.9089 906.088 30.9089H904.208V40.9589H900.52V15.2169H906.051C907.064 15.2169 907.955 15.3499 908.727 15.6149C909.498 15.8799 910.197 16.3509 910.824 17.0249Z" fill="#F86338"/>
<path d="M888.408 28.848H888.335L883.598 15.217H880.056V40.959H883.743V25.304H883.815L887.432 36.368H889.277L892.927 25.304H893V40.959H896.687V15.217H893.109L888.408 28.848Z" fill="#F86338"/>
<path fill-rule="evenodd" clip-rule="evenodd" d="M856.647 45.553C857.031 45.553 857.367 45.637 857.654 45.807C857.943 45.977 858.167 46.211 858.327 46.513C858.488 46.814 858.568 47.162 858.568 47.556C858.568 47.952 858.488 48.299 858.327 48.601C858.167 48.901 857.943 49.136 857.654 49.305C857.367 49.476 857.031 49.561 856.647 49.561C856.264 49.561 855.927 49.476 855.639 49.305C855.351 49.136 855.126 48.901 854.964 48.601C854.802 48.299 854.721 47.952 854.721 47.556C854.721 47.162 854.802 46.814 854.964 46.513C855.126 46.211 855.351 45.977 855.639 45.807C855.927 45.637 856.264 45.553 856.647 45.553ZM857.342 48.858C857.539 48.74 857.693 48.571 857.804 48.348C857.915 48.126 857.97 47.863 857.97 47.556C857.97 47.25 857.915 46.986 857.804 46.765C857.693 46.543 857.539 46.374 857.342 46.256C857.145 46.138 856.913 46.078 856.647 46.078C856.382 46.078 856.149 46.138 855.949 46.256C855.75 46.374 855.596 46.543 855.487 46.765C855.379 46.986 855.325 47.25 855.325 47.556C855.325 47.863 855.379 48.126 855.487 48.348C855.596 48.571 855.75 48.74 855.949 48.858C856.149 48.975 856.382 49.035 856.647 49.035C856.913 49.035 857.145 48.975 857.342 48.858Z" fill="#F86338"/>
<path fill-rule="evenodd" clip-rule="evenodd" d="M878.762 45.553C879.146 45.553 879.482 45.637 879.769 45.807C880.058 45.977 880.282 46.211 880.442 46.513C880.603 46.814 880.684 47.162 880.684 47.556C880.684 47.952 880.603 48.299 880.442 48.601C880.282 48.901 880.058 49.136 879.769 49.305C879.482 49.476 879.146 49.561 878.762 49.561C878.379 49.561 878.042 49.476 877.755 49.305C877.466 49.136 877.241 48.901 877.079 48.601C876.917 48.299 876.836 47.952 876.836 47.556C876.836 47.162 876.917 46.814 877.079 46.513C877.241 46.211 877.466 45.977 877.755 45.807C878.042 45.637 878.379 45.553 878.762 45.553ZM879.457 48.858C879.654 48.74 879.808 48.571 879.919 48.348C880.03 48.126 880.086 47.863 880.086 47.556C880.086 47.25 880.03 46.986 879.919 46.765C879.808 46.543 879.654 46.374 879.457 46.256C879.26 46.138 879.028 46.078 878.762 46.078C878.497 46.078 878.264 46.138 878.064 46.256C877.866 46.374 877.712 46.543 877.602 46.765C877.494 46.986 877.44 47.25 877.44 47.556C877.44 47.863 877.494 48.126 877.602 48.348C877.712 48.571 877.866 48.74 878.064 48.858C878.264 48.975 878.497 49.035 878.762 49.035C879.028 49.035 879.26 48.975 879.457 48.858Z" fill="#F86338"/>
<path d="M919.036 47.8441H920.088C920.055 48.2061 919.94 48.4951 919.748 48.7131C919.554 48.9311 919.265 49.0401 918.881 49.0401C918.501 49.0401 918.197 48.9111 917.968 48.6521C917.739 48.3941 917.625 48.0341 917.625 47.5731C917.625 47.1121 917.74 46.7501 917.974 46.4881C918.206 46.2261 918.525 46.0951 918.931 46.0951C919.204 46.0951 919.428 46.1541 919.6 46.2731C919.774 46.3911 919.89 46.5531 919.949 46.7601H920.613C920.524 46.3821 920.333 46.0881 920.038 45.8731C919.742 45.6591 919.373 45.5531 918.931 45.5531C918.539 45.5531 918.201 45.6391 917.915 45.8091C917.629 45.9821 917.409 46.2191 917.254 46.5211C917.098 46.8231 917.021 47.1731 917.021 47.5671C917.021 47.9671 917.097 48.3151 917.248 48.6151C917.399 48.9121 917.611 49.1461 917.885 49.3111C918.158 49.4781 918.476 49.5611 918.842 49.5611C919.155 49.5611 919.411 49.5051 919.606 49.3941C919.802 49.2831 919.964 49.1261 920.094 48.9241L920.143 49.4941H920.68V47.3911H919.036V47.8441Z" fill="#F86338"/>
<path d="M931.432 48.5365L929.489 45.6195H928.902V49.4945H929.489V46.5765L931.432 49.4945H932.019V45.6195H931.432V48.5365Z" fill="#F86338"/>
<path d="M926.477 49.4947H927.064V45.6197H926.477V49.4947Z" fill="#F86338"/>
<path d="M936.32 49.4945H933.856V45.6195H936.32V46.0955H934.443V47.3025H936.154V47.7665H934.443V49.0175H936.32V49.4945Z" fill="#F86338"/>
<path d="M942.981 47.2796H941.104V45.6196H940.517V49.4946H941.104V47.7606H942.981V49.4946H943.568V45.6196H942.981V47.2796Z" fill="#F86338"/>
<path d="M947.868 49.4945H945.404V45.6195H947.868V46.0955H945.991V47.3025H947.702V47.7665H945.991V49.0175H947.868V49.4945Z" fill="#F86338"/>
<path fill-rule="evenodd" clip-rule="evenodd" d="M952.101 47.4296C952.229 47.2336 952.292 47.0156 952.292 46.7766C952.292 46.5606 952.243 46.3676 952.147 46.1916C952.052 46.0156 951.904 45.8776 951.708 45.7736C951.51 45.6706 951.258 45.6196 950.952 45.6196H949.617V49.4946H950.204V47.9326H950.897L951.649 49.4946H952.331L951.505 47.8496C951.774 47.7656 951.973 47.6256 952.101 47.4296ZM950.918 47.4896H950.204V46.1116H950.913C951.187 46.1116 951.383 46.1736 951.505 46.2976C951.627 46.4216 951.689 46.5866 951.689 46.7936C951.689 46.9996 951.626 47.1676 951.503 47.2966C951.379 47.4256 951.185 47.4896 950.918 47.4896Z" fill="#F86338"/>
<path d="M956.498 49.4945H954.035V45.6195H956.498V46.0955H954.621V47.3025H956.332V47.7665H954.621V49.0175H956.498V49.4945Z" fill="#F86338"/>
<path d="M922.447 45.6195H923.034V49.0295H924.795V49.4945H922.447V45.6195Z" fill="#F86338"/>
<path d="M884.393 48.1986L883.081 45.6196H882.388V49.4946H882.975V46.6376L884.165 48.9406H884.619L885.804 46.6326V49.4946H886.391V45.6196H885.7L884.393 48.1986Z" fill="#F86338"/>
<path fill-rule="evenodd" clip-rule="evenodd" d="M889.587 45.6198C889.889 45.6198 890.14 45.6688 890.34 45.7708C890.538 45.8738 890.687 46.0098 890.785 46.1868C890.883 46.3618 890.932 46.5598 890.932 46.7818C890.932 46.9918 890.885 47.1838 890.791 47.3608C890.696 47.5358 890.55 47.6748 890.351 47.7778C890.151 47.8798 889.896 47.9328 889.587 47.9328H888.817V49.4948H888.23V45.6198H889.587ZM889.559 47.4518C889.836 47.4518 890.035 47.3908 890.154 47.2718C890.273 47.1508 890.334 46.9888 890.334 46.7818C890.334 46.5668 890.273 46.4008 890.154 46.2808C890.035 46.1608 889.836 46.1008 889.559 46.1008H888.817V47.4518H889.559Z" fill="#F86338"/>
<path fill-rule="evenodd" clip-rule="evenodd" d="M893.294 45.6194L891.867 49.4944H892.487L892.818 48.5484H894.402L894.735 49.4944H895.355L893.937 45.6194H893.294ZM892.985 48.0814L893.61 46.3164L894.236 48.0814H892.985Z" fill="#F86338"/>
<path d="M897.534 45.6195L899.478 48.5365V45.6195H900.065V49.4945H899.478L897.534 46.5765V49.4945H896.948V45.6195H897.534Z" fill="#F86338"/>
<path d="M903.182 47.4896L902.269 45.6196H901.605L902.89 48.0646V49.4946H903.476V48.0646L904.748 45.6196H904.091L903.182 47.4896Z" fill="#F86338"/>
<path d="M909.642 46.0951H908.496V45.6191H911.37V46.0951H910.229V49.4941H909.642V46.0951Z" fill="#F86338"/>
<path fill-rule="evenodd" clip-rule="evenodd" d="M913.727 45.6194L912.299 49.4944H912.919L913.251 48.5484H914.834L915.167 49.4944H915.787L914.369 45.6194H913.727ZM913.417 48.0814L914.043 46.3164L914.669 48.0814H913.417Z" fill="#F86338"/>
<path fill-rule="evenodd" clip-rule="evenodd" d="M867.696 46.7766C867.696 47.0156 867.633 47.2336 867.505 47.4296C867.378 47.6256 867.18 47.7656 866.91 47.8496L867.736 49.4946H867.055L866.302 47.9326H865.608V49.4946H865.021V45.6196H866.356C866.663 45.6196 866.914 45.6706 867.112 45.7736C867.309 45.8776 867.456 46.0156 867.552 46.1916C867.649 46.3676 867.696 46.5606 867.696 46.7766ZM865.608 47.4896H866.323C866.59 47.4896 866.783 47.4256 866.907 47.2966C867.031 47.1676 867.094 46.9996 867.094 46.7936C867.094 46.5866 867.032 46.4216 866.91 46.2976C866.788 46.1736 866.591 46.1116 866.317 46.1116H865.608V47.4896Z" fill="#F86338"/>
<path d="M873.608 46.0785C873.893 46.0785 874.12 46.1445 874.289 46.2785C874.459 46.4105 874.569 46.5895 874.622 46.8145H875.274C875.198 46.4155 875.015 46.1055 874.726 45.8845C874.439 45.6635 874.068 45.5535 873.613 45.5535C873.231 45.5535 872.899 45.6375 872.62 45.8075C872.341 45.9765 872.127 46.2115 871.975 46.5135C871.824 46.8135 871.749 47.1635 871.749 47.5615C871.749 47.9575 871.824 48.3055 871.975 48.6055C872.127 48.9055 872.341 49.1405 872.62 49.3075C872.899 49.4755 873.231 49.5605 873.613 49.5605C874.068 49.5605 874.439 49.4515 874.726 49.2335C875.015 49.0165 875.198 48.7165 875.274 48.3315H874.622C874.569 48.5495 874.459 48.7215 874.289 48.8465C874.12 48.9725 873.893 49.0345 873.608 49.0345C873.221 49.0345 872.914 48.9025 872.69 48.6415C872.465 48.3805 872.353 48.0195 872.353 47.5615C872.353 47.1005 872.465 46.7375 872.69 46.4745C872.914 46.2105 873.221 46.0785 873.608 46.0785Z" fill="#F86338"/>
<path d="M862.63 48.0443C862.63 48.3833 862.549 48.6323 862.387 48.7903C862.225 48.9503 862.007 49.0293 861.734 49.0293C861.456 49.0293 861.237 48.9503 861.075 48.7903C860.913 48.6323 860.831 48.3833 860.831 48.0443V45.6193H860.244V48.0383C860.244 48.3863 860.311 48.6713 860.441 48.8963C860.571 49.1213 860.749 49.2883 860.972 49.3973C861.195 49.5063 861.445 49.5613 861.723 49.5613C861.996 49.5613 862.246 49.5063 862.472 49.3973C862.699 49.2883 862.88 49.1213 863.016 48.8963C863.151 48.6713 863.217 48.3863 863.217 48.0383V45.6193H862.63V48.0443Z" fill="#F86338"/>
<path d="M918.346 15.2171L912.596 40.9591H916.283L917.369 35.4281H922.395L923.479 40.9591H927.166L921.418 15.2171H918.346Z" fill="#F86338"/>
<path d="M938.375 15.2171H942.063V40.9591H938.592L932.952 25.4851H932.879V40.9591H929.192V15.2171H932.735L938.303 30.7281H938.375V15.2171Z" fill="#F86338"/>
<path d="M954.03 15.2171L951.065 25.4481H950.993L948.028 15.2171H944.124L949.184 30.0761V40.9591H952.872V30.0761L957.934 15.2171H954.03Z" fill="#F86338"/>
<path d="M851.1 45.6196L852.013 47.4896L852.922 45.6196H853.579L852.307 48.0646V49.4946H851.721V48.0646L850.436 45.6196H851.1Z" fill="#F86338"/>
<path fill-rule="evenodd" clip-rule="evenodd" d="M681.203 12L669.879 31.612L681.203 51.223H703.847L715.171 31.612L703.847 12H681.203ZM682.235 31.612L687.381 22.7H697.669L702.815 31.612L697.669 40.523H687.381L682.235 31.612Z" fill="#F86338"/>
<path d="M632 23.4408V25.6438H634.708V39.7828H637.05V25.6438H639.759V23.4408H632Z" fill="#F86338"/>
<path d="M648 39.7833H641.021V23.4403H648V25.6433H643.363V30.4413H647.402V32.6443H643.363V37.4423H648V39.7833Z" fill="#F86338"/>
<path d="M657.365 23.4406H654.885L653.095 28.2836L651.328 23.4406H648.849L651.902 31.2216L648.595 39.7836H651.076L653.095 34.2746L655.138 39.7836H657.617L654.242 31.2216L657.365 23.4406Z" fill="#F86338"/>
<path d="M660.439 25.6437H657.73V23.4407H665.49V25.6437H662.781V39.7837H660.439V25.6437Z" fill="#F86338"/>
<path d="M722.941 23.4406H720.599V39.7836H727.578V37.4426H722.941V23.4406Z" fill="#F86338"/>
<path d="M744.529 23.5552C744.995 23.7242 745.419 23.9682 745.802 24.2892C746.169 24.6262 746.468 25.0472 746.697 25.5522C746.927 26.0572 747.042 26.6392 747.042 27.2962V28.1232H744.7V27.2962C744.7 26.7302 744.544 26.3132 744.23 26.0452C743.915 25.7772 743.544 25.6432 743.116 25.6432C742.689 25.6432 742.318 25.7772 742.003 26.0452C741.689 26.3132 741.532 26.7302 741.532 27.2962V35.9272C741.532 36.4932 741.689 36.9102 742.003 37.1782C742.318 37.4462 742.689 37.5802 743.116 37.5802C743.544 37.5802 743.915 37.4462 744.23 37.1782C744.544 36.9102 744.7 36.4932 744.7 35.9272V32.8522H742.841V30.7852H747.042V35.9272C747.042 36.6152 746.927 37.2052 746.697 37.6942C746.468 38.1852 746.169 38.5902 745.802 38.9112C745.419 39.2482 744.995 39.5002 744.529 39.6682C744.062 39.8372 743.591 39.9212 743.116 39.9212C742.642 39.9212 742.171 39.8372 741.704 39.6682C741.238 39.5002 740.822 39.2482 740.454 38.9112C740.072 38.5902 739.765 38.1852 739.536 37.6942C739.306 37.2052 739.191 36.6152 739.191 35.9272V27.2962C739.191 26.6392 739.306 26.0572 739.536 25.5522C739.765 25.0472 740.072 24.6262 740.454 24.2892C740.822 23.9682 741.238 23.7242 741.704 23.5552C742.171 23.3872 742.642 23.3032 743.116 23.3032C743.591 23.3032 744.062 23.3872 744.529 23.5552Z" fill="#F86338"/>
<path fill-rule="evenodd" clip-rule="evenodd" d="M735.795 24.2889C735.412 23.9679 734.988 23.7239 734.521 23.5549C734.054 23.3869 733.584 23.3029 733.109 23.3029C732.634 23.3029 732.164 23.3869 731.697 23.5549C731.23 23.7239 730.814 23.9679 730.447 24.2889C730.064 24.6259 729.757 25.0469 729.529 25.5519C729.298 26.0569 729.183 26.6389 729.183 27.2959V35.9269C729.183 36.6149 729.298 37.2049 729.529 37.6949C729.757 38.1849 730.064 38.5899 730.447 38.9109C730.814 39.2479 731.23 39.4999 731.697 39.6679C732.164 39.8369 732.634 39.9209 733.109 39.9209C733.584 39.9209 734.054 39.8369 734.521 39.6679C734.988 39.4999 735.412 39.2479 735.795 38.9109C736.162 38.5899 736.461 38.1849 736.689 37.6949C736.92 37.2049 737.035 36.6149 737.035 35.9269V27.2959C737.035 26.6389 736.92 26.0569 736.689 25.5519C736.461 25.0469 736.162 24.6259 735.795 24.2889ZM734.693 35.9269C734.693 36.4929 734.537 36.9099 734.222 37.1779C733.908 37.4469 733.537 37.5799 733.109 37.5799C732.681 37.5799 732.31 37.4469 731.996 37.1779C731.681 36.9099 731.525 36.4929 731.525 35.9269V27.2959C731.525 26.7309 731.681 26.3139 731.996 26.0449C732.31 25.7779 732.681 25.6439 733.109 25.6439C733.537 25.6439 733.908 25.7779 734.222 26.0449C734.537 26.3139 734.693 26.7309 734.693 27.2959V35.9269Z" fill="#F86338"/>
<path fill-rule="evenodd" clip-rule="evenodd" d="M755.811 24.2889C756.177 24.6259 756.477 25.0469 756.704 25.5519C756.936 26.0569 757.05 26.6389 757.05 27.2959V35.9269C757.05 36.6149 756.936 37.2049 756.704 37.6949C756.477 38.1849 756.177 38.5899 755.811 38.9109C755.427 39.2479 755.004 39.4999 754.536 39.6679C754.07 39.8369 753.6 39.9209 753.125 39.9209C752.649 39.9209 752.18 39.8369 751.713 39.6679C751.245 39.4999 750.829 39.2479 750.463 38.9109C750.079 38.5899 749.772 38.1849 749.545 37.6949C749.313 37.2049 749.199 36.6149 749.199 35.9269V27.2959C749.199 26.6389 749.313 26.0569 749.545 25.5519C749.772 25.0469 750.079 24.6259 750.463 24.2889C750.829 23.9679 751.245 23.7239 751.713 23.5549C752.18 23.3869 752.649 23.3029 753.125 23.3029C753.6 23.3029 754.07 23.3869 754.536 23.5549C755.004 23.7239 755.427 23.9679 755.811 24.2889ZM754.238 37.1779C754.552 36.9099 754.709 36.4929 754.709 35.9269V27.2959C754.709 26.7309 754.552 26.3139 754.238 26.0449C753.924 25.7779 753.552 25.6439 753.125 25.6439C752.697 25.6439 752.326 25.7779 752.012 26.0449C751.697 26.3139 751.541 26.7309 751.541 27.2959V35.9269C751.541 36.4929 751.697 36.9099 752.012 37.1779C752.326 37.4469 752.697 37.5799 753.125 37.5799C753.552 37.5799 753.924 37.4469 754.238 37.1779Z" fill="#F86338"/>
<path d="M476.165 2V18.657L459.508 2V45.443H519.608L476.165 2Z" fill="#F86338"/>
<path d="M464.148 55.4815C464.708 55.4815 465.158 55.6125 465.498 55.8725C465.838 56.1315 466.06 56.4905 466.164 56.9455H467.856C467.696 56.0425 467.294 55.3395 466.65 54.8395C466.006 54.3395 465.18 54.0895 464.172 54.0895C463.324 54.0895 462.596 54.2735 461.988 54.6415C461.38 55.0095 460.912 55.5215 460.584 56.1775C460.256 56.8345 460.092 57.5895 460.092 58.4455C460.092 59.3015 460.256 60.0555 460.584 60.7085C460.912 61.3605 461.38 61.8685 461.988 62.2315C462.596 62.5955 463.324 62.7775 464.172 62.7775C465.18 62.7775 466.006 62.5345 466.65 62.0455C467.294 61.5575 467.696 60.8815 467.856 60.0175H466.164C466.06 60.4505 465.838 60.7885 465.498 61.0325C465.158 61.2765 464.708 61.3975 464.148 61.3975C463.372 61.3975 462.764 61.1355 462.324 60.6115C461.884 60.0875 461.664 59.3665 461.664 58.4455C461.664 57.5265 461.884 56.8015 462.324 56.2735C462.764 55.7465 463.372 55.4815 464.148 55.4815Z" fill="#F86338"/>
<path fill-rule="evenodd" clip-rule="evenodd" d="M477.624 54.6415C476.992 54.2735 476.26 54.0895 475.428 54.0895C474.588 54.0895 473.854 54.2735 473.226 54.6415C472.598 55.0095 472.106 55.5195 471.75 56.1715C471.394 56.8245 471.216 57.5785 471.216 58.4335C471.216 59.2905 471.394 60.0435 471.75 60.6955C472.106 61.3475 472.598 61.8585 473.226 62.2255C473.854 62.5935 474.588 62.7775 475.428 62.7775C476.26 62.7775 476.992 62.5935 477.624 62.2255C478.256 61.8585 478.748 61.3475 479.1 60.6955C479.452 60.0435 479.628 59.2905 479.628 58.4335C479.628 57.5785 479.452 56.8245 479.1 56.1715C478.748 55.5195 478.256 55.0095 477.624 54.6415ZM477.342 60.6055C476.866 61.1335 476.228 61.3975 475.428 61.3975C474.628 61.3975 473.988 61.1335 473.508 60.6055C473.028 60.0785 472.788 59.3535 472.788 58.4335C472.788 57.5135 473.028 56.7905 473.508 56.2615C473.988 55.7335 474.628 55.4695 475.428 55.4695C476.228 55.4695 476.866 55.7335 477.342 56.2615C477.818 56.7905 478.056 57.5135 478.056 58.4335C478.056 59.3535 477.818 60.0785 477.342 60.6055Z" fill="#F86338"/>
<path d="M485.088 54.2335L487.765 59.5615L490.404 54.2335H492.228V62.6335H490.692V56.8375L488.353 61.4335H487.141L484.8 56.8375V62.6335H483.265V54.2335H485.088Z" fill="#F86338"/>
<path fill-rule="evenodd" clip-rule="evenodd" d="M500.915 54.5693C500.476 54.3453 499.919 54.2333 499.248 54.2333H496.14V62.6343H497.675V59.3823H499.248C499.936 59.3823 500.499 59.2633 500.94 59.0273C501.379 58.7923 501.704 58.4793 501.912 58.0923C502.12 57.7043 502.224 57.2783 502.224 56.8133C502.224 56.3263 502.116 55.8853 501.9 55.4943C501.684 55.1013 501.356 54.7943 500.915 54.5693ZM500.31 57.7803C500.074 58.0153 499.688 58.1343 499.152 58.1343H497.675V55.4813H499.152C499.688 55.4813 500.074 55.5993 500.31 55.8363C500.545 56.0723 500.664 56.3973 500.664 56.8133C500.664 57.2213 500.545 57.5443 500.31 57.7803Z" fill="#F86338"/>
<path fill-rule="evenodd" clip-rule="evenodd" d="M504.264 62.6343L507.335 54.2333H509.064L512.136 62.6343H510.503L509.831 60.6893H506.556L505.872 62.6343H504.264ZM508.188 55.9983L506.976 59.4903H509.412L508.188 55.9983Z" fill="#F86338"/>
<path d="M520.979 60.1494L517.031 54.2334H515.496V62.6334H517.031V56.7294L520.979 62.6334H522.515V54.2334H520.979V60.1494Z" fill="#F86338"/>
<path d="M529.379 58.1094L531.228 54.2334H532.944L530.136 59.6454V62.6334H528.6V59.6454L525.78 54.2334H527.52L529.379 58.1094Z" fill="#F86338"/>
<path fill-rule="evenodd" clip-rule="evenodd" d="M444 62.6346L447.073 54.2336H448.801L451.873 62.6346H450.241L449.569 60.6896H446.293L445.609 62.6346H444ZM449.148 59.4906L447.924 55.9986L446.712 59.4906H449.148Z" fill="#F86338"/>
<path d="M233.891 0L212 21.892L220.484 30.374L233.892 16.967L247.299 30.374L255.783 21.892L233.891 0Z" fill="#F86338"/>
<path d="M212 43.1001L233.891 64.9921L255.782 43.1001L233.891 21.2091L212 43.1001Z" fill="#F86338"/>
<path fill-rule="evenodd" clip-rule="evenodd" d="M286.309 38.5068C287.022 37.9998 287.525 37.3068 287.818 36.4268C288.112 35.5478 288.26 34.5288 288.26 33.3718V25.3608C288.26 24.1888 288.107 23.1698 287.807 22.3058C287.507 21.4418 286.994 20.7728 286.273 20.2968C285.553 19.8208 284.574 19.5838 283.338 19.5838C282.086 19.5838 281.099 19.8208 280.379 20.2968C279.657 20.7728 279.142 21.4418 278.833 22.3058C278.523 23.1698 278.369 24.1888 278.369 25.3608V33.3488C278.369 34.5058 278.515 35.5318 278.809 36.4268C279.102 37.3218 279.609 38.0198 280.331 38.5198C281.051 39.0188 282.053 39.2678 283.338 39.2678C284.605 39.2678 285.596 39.0148 286.309 38.5068ZM280.45 35.8798C280.283 35.2708 280.2 34.5608 280.2 33.7528V25.0278C280.2 24.2198 280.283 23.5148 280.45 22.9118C280.616 22.3108 280.925 21.8468 281.377 21.5218C281.828 21.1968 282.481 21.0338 283.338 21.0338C284.178 21.0338 284.82 21.1968 285.262 21.5218C285.706 21.8468 286.012 22.3108 286.178 22.9118C286.346 23.5148 286.428 24.2198 286.428 25.0278V33.7528C286.428 34.5608 286.346 35.2708 286.178 35.8798C286.012 36.4898 285.706 36.9658 285.262 37.3068C284.82 37.6478 284.178 37.8168 283.338 37.8168C282.481 37.8168 281.828 37.6478 281.377 37.3068C280.925 36.9658 280.616 36.4898 280.45 35.8798Z" fill="#F86338"/>
<path d="M272.33 19.5839C273.488 19.5839 274.395 19.8059 275.052 20.2499C275.71 20.6929 276.182 21.3229 276.467 22.1399C276.752 22.9559 276.895 23.9269 276.895 25.0519V26.2169H275.183V25.0999C275.183 24.2599 275.115 23.5379 274.981 22.9359C274.846 22.3339 274.573 21.8659 274.161 21.5329C273.748 21.1999 273.147 21.0339 272.354 21.0339C271.483 21.0339 270.828 21.2129 270.393 21.5689C269.956 21.9259 269.663 22.4289 269.513 23.0789C269.363 23.7289 269.287 24.4809 269.287 25.3369V33.5389C269.287 34.4889 269.378 35.2819 269.561 35.9159C269.742 36.5499 270.056 37.0249 270.5 37.3429C270.944 37.6589 271.562 37.8169 272.354 37.8169C273.162 37.8169 273.769 37.6439 274.173 37.2949C274.577 36.9459 274.846 36.4589 274.981 35.8329C275.115 35.2069 275.183 34.4739 275.183 33.6339V32.3739H276.895V33.5149C276.895 34.6409 276.764 35.6349 276.502 36.4979C276.241 37.3619 275.781 38.0399 275.123 38.5309C274.466 39.0219 273.534 39.2679 272.33 39.2679C271.031 39.2679 270.029 38.9989 269.323 38.4599C268.617 37.9209 268.13 37.1959 267.861 36.2839C267.591 35.3729 267.457 34.3629 267.457 33.2529V25.5989C267.457 24.4099 267.595 23.3639 267.873 22.4609C268.15 21.5569 268.646 20.8529 269.359 20.3449C270.072 19.8379 271.062 19.5839 272.33 19.5839Z" fill="#F86338"/>
<path d="M326.244 45.3612H327.978V45.0262H326.657V44.1452H327.861V43.8182H326.657V42.9682H327.978V42.6332H326.244V45.3612Z" fill="#F86338"/>
<path d="M323.17 42.6334L324.538 44.6874V42.6334H324.951V45.3614H324.538L323.17 43.3074V45.3614H322.757V42.6334H323.17Z" fill="#F86338"/>
<path d="M321.463 45.3617H321.05V42.6337H321.463V45.3617Z" fill="#F86338"/>
<path d="M331.346 43.8026H332.667V42.6336H333.08V45.3616H332.667V44.1416H331.346V45.3616H330.933V42.6336H331.346V43.8026Z" fill="#F86338"/>
<path d="M334.373 45.3612H336.107V45.0262H334.786V44.1452H335.99V43.8182H334.786V42.9682H336.107V42.6332H334.373V45.3612Z" fill="#F86338"/>
<path fill-rule="evenodd" clip-rule="evenodd" d="M339.222 43.4481C339.222 43.6171 339.177 43.7701 339.087 43.9081C338.997 44.0461 338.858 44.1441 338.668 44.2041L339.249 45.3611H338.77L338.239 44.2621H337.752V45.3611H337.339V42.6341H338.278C338.494 42.6341 338.671 42.6701 338.811 42.7421C338.949 42.8151 339.053 42.9131 339.12 43.0371C339.188 43.1601 339.222 43.2971 339.222 43.4481ZM337.752 43.9501H338.255C338.442 43.9501 338.579 43.9051 338.666 43.8141C338.753 43.7231 338.797 43.6051 338.797 43.4601C338.797 43.3141 338.754 43.1981 338.668 43.1111C338.582 43.0231 338.443 42.9801 338.251 42.9801H337.752V43.9501Z" fill="#F86338"/>
<path d="M340.449 45.3612H342.182V45.0262H340.861V44.1452H342.065V43.8182H340.861V42.9682H342.182V42.6332H340.449V45.3612Z" fill="#F86338"/>
<path d="M295.652 39.0306L292.014 23.7206L291.634 39.0306H290.136L290.612 19.7746H292.418L296.222 36.4866L300.097 19.7746H301.904L302.379 39.0306H300.881L300.501 23.6966L296.817 39.0306H295.652Z" fill="#F86338"/>
<path fill-rule="evenodd" clip-rule="evenodd" d="M311.924 29.2362C312.597 28.7762 313.081 28.1622 313.375 27.3932C313.668 26.6252 313.814 25.7892 313.814 24.8852C313.814 23.8552 313.675 22.9602 313.398 22.1992C313.121 21.4382 312.649 20.8432 311.984 20.4162C311.318 19.9882 310.407 19.7742 309.25 19.7742H304.637V39.0302H306.445V29.9252H309.273C310.367 29.9252 311.251 29.6952 311.924 29.2362ZM306.445 28.5702V21.1292H308.774C309.631 21.1292 310.292 21.2362 310.759 21.4502C311.226 21.6642 311.555 22.0452 311.746 22.5912C311.936 23.1372 312.031 23.9032 312.031 24.8852C312.031 25.8042 311.921 26.5342 311.699 27.0722C311.476 27.6112 311.124 27.9962 310.64 28.2252C310.157 28.4552 309.527 28.5702 308.751 28.5702H306.445Z" fill="#F86338"/>
<path fill-rule="evenodd" clip-rule="evenodd" d="M319.117 19.7744L323.206 39.0304H321.422L320.471 33.8714H315.883L314.909 39.0304H313.149L317.214 19.7744H319.117ZM318.189 22.1744L316.145 32.5634H320.234L318.189 22.1744Z" fill="#F86338"/>
<path d="M332.025 34.7274L325.891 19.7744H324.584V39.0304H326.153V23.9114L332.31 39.0304H333.594V19.7744H332.025V34.7274Z" fill="#F86338"/>
<path d="M340.82 39.0302H339.061V32.6342L334.71 19.7742H336.469L339.94 30.4712L343.269 19.7742H345.051L340.82 32.6342V39.0302Z" fill="#F86338"/>
<path d="M268.634 43.9501L267.991 42.6341H267.524L268.428 44.3551V45.3611H268.841V44.3551L269.737 42.6341H269.274L268.634 43.9501Z" fill="#F86338"/>
<path fill-rule="evenodd" clip-rule="evenodd" d="M271.896 42.5866C272.166 42.5866 272.402 42.6466 272.605 42.7656C272.808 42.8856 272.966 43.0506 273.078 43.2626C273.191 43.4746 273.248 43.7196 273.248 43.9966C273.248 44.2756 273.191 44.5206 273.078 44.7326C272.966 44.9436 272.808 45.1096 272.605 45.2286C272.402 45.3486 272.166 45.4086 271.896 45.4086C271.626 45.4086 271.389 45.3486 271.187 45.2286C270.983 45.1096 270.825 44.9436 270.711 44.7326C270.597 44.5206 270.54 44.2756 270.54 43.9966C270.54 43.7196 270.597 43.4746 270.711 43.2626C270.825 43.0506 270.983 42.8856 271.187 42.7656C271.389 42.6466 271.626 42.5866 271.896 42.5866ZM272.385 44.9126C272.523 44.8296 272.632 44.7106 272.71 44.5546C272.788 44.3986 272.827 44.2126 272.827 43.9966C272.827 43.7826 272.788 43.5956 272.71 43.4406C272.632 43.2836 272.523 43.1646 272.385 43.0816C272.246 42.9986 272.083 42.9566 271.896 42.9566C271.709 42.9566 271.545 42.9986 271.404 43.0816C271.265 43.1646 271.156 43.2836 271.079 43.4406C271.003 43.5956 270.965 43.7826 270.965 43.9966C270.965 44.2126 271.003 44.3986 271.079 44.5546C271.156 44.7106 271.265 44.8296 271.404 44.9126C271.545 44.9956 271.709 45.0376 271.896 45.0376C272.083 45.0376 272.246 44.9956 272.385 44.9126Z" fill="#F86338"/>
<path d="M276.108 44.3407C276.108 44.5787 276.051 44.7547 275.937 44.8657C275.823 44.9787 275.67 45.0337 275.477 45.0337C275.282 45.0337 275.128 44.9787 275.013 44.8657C274.899 44.7547 274.841 44.5787 274.841 44.3407V42.6337H274.428V44.3367C274.428 44.5807 274.475 44.7817 274.567 44.9407C274.659 45.0987 274.784 45.2167 274.941 45.2927C275.098 45.3697 275.274 45.4077 275.469 45.4077C275.662 45.4077 275.837 45.3697 275.997 45.2927C276.157 45.2167 276.284 45.0987 276.379 44.9407C276.474 44.7817 276.521 44.5807 276.521 44.3367V42.6337H276.108V44.3407Z" fill="#F86338"/>
<path fill-rule="evenodd" clip-rule="evenodd" d="M279.674 43.4481C279.674 43.6171 279.629 43.7701 279.539 43.9081C279.449 44.0461 279.31 44.1441 279.12 44.2041L279.701 45.3611H279.222L278.691 44.2621H278.204V45.3611H277.791V42.6341H278.73C278.946 42.6341 279.123 42.6701 279.263 42.7421C279.401 42.8151 279.505 42.9131 279.572 43.0371C279.64 43.1601 279.674 43.2971 279.674 43.4481ZM278.204 43.9501H278.707C278.894 43.9501 279.031 43.9051 279.118 43.8141C279.205 43.7231 279.249 43.6051 279.249 43.4601C279.249 43.3141 279.206 43.1981 279.12 43.1111C279.034 43.0231 278.895 42.9801 278.703 42.9801H278.204V43.9501Z" fill="#F86338"/>
<path d="M283.835 42.9569C284.035 42.9569 284.195 43.0039 284.314 43.0979C284.434 43.1899 284.512 43.3159 284.549 43.4759H285.008C284.954 43.1939 284.825 42.9769 284.622 42.8199C284.42 42.6649 284.159 42.5869 283.839 42.5869C283.569 42.5869 283.336 42.6459 283.14 42.7659C282.943 42.8859 282.792 43.0509 282.686 43.2629C282.579 43.4749 282.526 43.7209 282.526 44.0009C282.526 44.2789 282.579 44.5239 282.686 44.7359C282.792 44.9469 282.943 45.1119 283.14 45.2299C283.336 45.3489 283.569 45.4079 283.839 45.4079C284.159 45.4079 284.42 45.3309 284.622 45.1779C284.825 45.0249 284.954 44.8129 285.008 44.5429H284.549C284.512 44.6959 284.434 44.8169 284.314 44.9049C284.195 44.9939 284.035 45.0379 283.835 45.0379C283.563 45.0379 283.347 44.9449 283.189 44.7609C283.03 44.5769 282.951 44.3229 282.951 44.0009C282.951 43.6769 283.03 43.4209 283.189 43.2349C283.347 43.0499 283.563 42.9569 283.835 42.9569Z" fill="#F86338"/>
<path fill-rule="evenodd" clip-rule="evenodd" d="M287.464 42.5866C287.734 42.5866 287.97 42.6466 288.173 42.7656C288.376 42.8856 288.534 43.0506 288.646 43.2626C288.759 43.4746 288.816 43.7196 288.816 43.9966C288.816 44.2756 288.759 44.5206 288.646 44.7326C288.534 44.9436 288.376 45.1096 288.173 45.2286C287.97 45.3486 287.734 45.4086 287.464 45.4086C287.194 45.4086 286.957 45.3486 286.755 45.2286C286.551 45.1096 286.393 44.9436 286.279 44.7326C286.165 44.5206 286.108 44.2756 286.108 43.9966C286.108 43.7196 286.165 43.4746 286.279 43.2626C286.393 43.0506 286.551 42.8856 286.755 42.7656C286.957 42.6466 287.194 42.5866 287.464 42.5866ZM287.953 44.9126C288.091 44.8296 288.2 44.7106 288.278 44.5546C288.356 44.3986 288.395 44.2126 288.395 43.9966C288.395 43.7826 288.356 43.5956 288.278 43.4406C288.2 43.2836 288.091 43.1646 287.953 43.0816C287.814 42.9986 287.651 42.9566 287.464 42.9566C287.277 42.9566 287.113 42.9986 286.972 43.0816C286.833 43.1646 286.724 43.2836 286.647 43.4406C286.571 43.5956 286.533 43.7826 286.533 43.9966C286.533 44.2126 286.571 44.3986 286.647 44.5546C286.724 44.7106 286.833 44.8296 286.972 44.9126C287.113 44.9956 287.277 45.0376 287.464 45.0376C287.651 45.0376 287.814 44.9956 287.953 44.9126Z" fill="#F86338"/>
<path d="M291.427 44.4491L290.503 42.6341H290.016V45.3611H290.429V43.3501L291.267 44.9711H291.586L292.42 43.3461V45.3611H292.833V42.6341H292.347L291.427 44.4491Z" fill="#F86338"/>
<path fill-rule="evenodd" clip-rule="evenodd" d="M295.083 42.6338C295.295 42.6338 295.472 42.6688 295.613 42.7398C295.753 42.8128 295.857 42.9088 295.926 43.0328C295.995 43.1558 296.03 43.2958 296.03 43.4518C296.03 43.5998 295.997 43.7348 295.93 43.8588C295.864 43.9828 295.76 44.0808 295.621 44.1528C295.48 44.2258 295.3 44.2628 295.083 44.2628H294.541V45.3608H294.128V42.6338H295.083ZM295.063 43.9238C295.258 43.9238 295.398 43.8808 295.482 43.7968C295.566 43.7118 295.609 43.5978 295.609 43.4518C295.609 43.3008 295.566 43.1838 295.482 43.0998C295.398 43.0148 295.258 42.9728 295.063 42.9728H294.541V43.9238H295.063Z" fill="#F86338"/>
<path fill-rule="evenodd" clip-rule="evenodd" d="M297.693 42.6341L296.688 45.3611H297.124L297.358 44.6951H298.472L298.706 45.3611H299.143L298.145 42.6341H297.693ZM297.475 44.3671L297.915 43.1251L298.356 44.3671H297.475Z" fill="#F86338"/>
<path d="M300.677 42.6334L302.045 44.6874V42.6334H302.458V45.3614H302.045L300.677 43.3074V45.3614H300.264V42.6334H300.677Z" fill="#F86338"/>
<path d="M304.653 43.9501L304.01 42.6341H303.543L304.447 44.3551V45.3611H304.86V44.3551L305.756 42.6341H305.293L304.653 43.9501Z" fill="#F86338"/>
<path d="M309.201 42.9686H308.394V42.6336H310.416V42.9686H309.614V45.3616H309.201V42.9686Z" fill="#F86338"/>
<path fill-rule="evenodd" clip-rule="evenodd" d="M312.076 42.6341L311.071 45.3611H311.507L311.741 44.6951H312.855L313.089 45.3611H313.526L312.528 42.6341H312.076ZM311.858 44.3671L312.298 43.1251L312.739 44.3671H311.858Z" fill="#F86338"/>
<path d="M316.553 44.2001H315.813V43.8811H316.97V45.3611H316.592L316.557 44.9601C316.466 45.1021 316.352 45.2131 316.214 45.2911C316.077 45.3691 315.897 45.4081 315.676 45.4081C315.419 45.4081 315.195 45.3491 315.002 45.2321C314.81 45.1161 314.661 44.9521 314.554 44.7421C314.448 44.5311 314.395 44.2861 314.395 44.0051C314.395 43.7271 314.449 43.4811 314.558 43.2681C314.667 43.0551 314.823 42.8881 315.024 42.7671C315.225 42.6471 315.463 42.5871 315.739 42.5871C316.05 42.5871 316.31 42.6621 316.518 42.8121C316.726 42.9641 316.861 43.1711 316.923 43.4361H316.456C316.415 43.2911 316.333 43.1771 316.21 43.0941C316.088 43.0101 315.931 42.9691 315.739 42.9691C315.454 42.9691 315.229 43.0601 315.065 43.2451C314.901 43.4291 314.82 43.6841 314.82 44.0091C314.82 44.3341 314.9 44.5871 315.061 44.7681C315.222 44.9511 315.436 45.0421 315.704 45.0421C315.974 45.0421 316.177 44.9651 316.314 44.8111C316.45 44.6581 316.53 44.4551 316.553 44.2001Z" fill="#F86338"/>
<path d="M318.626 42.6337H318.213V45.3617H319.865V45.0337H318.626V42.6337Z" fill="#F86338"/>
<path fill-rule="evenodd" clip-rule="evenodd" d="M0 32.146C0 15.497 13.496 2 30.145 2C46.794 2 60.29 15.497 60.29 32.146C60.29 48.794 46.794 62.291 30.145 62.291C13.496 62.291 0 48.794 0 32.146ZM31.916 21.906C31.916 26.583 35.707 30.375 40.385 30.375C45.062 30.375 48.854 26.583 48.854 21.906C48.854 17.228 45.062 13.437 40.385 13.437C35.707 13.437 31.916 17.228 31.916 21.906Z" fill="#F86338"/>
<path d="M72.7818 26.5426C71.6438 26.5426 70.6668 26.2986 69.8518 25.8096C69.0358 25.3216 68.4078 24.6396 67.9678 23.7646C67.5278 22.8906 67.3078 21.8786 67.3078 20.7296C67.3078 19.5816 67.5278 18.5666 67.9678 17.6866C68.4078 16.8066 69.0358 16.1196 69.8518 15.6256C70.6668 15.1326 71.6438 14.8856 72.7818 14.8856C74.1348 14.8856 75.2428 15.2206 76.1058 15.8916C76.9718 16.5626 77.5108 17.5046 77.7258 18.7176H75.4558C75.3148 18.1056 75.0188 17.6246 74.5608 17.2766C74.1048 16.9276 73.5008 16.7526 72.7498 16.7526C71.7088 16.7526 70.8928 17.1066 70.3028 17.8156C69.7118 18.5236 69.4168 19.4956 69.4168 20.7296C69.4168 21.9646 69.7118 22.9336 70.3028 23.6366C70.8928 24.3396 71.7088 24.6906 72.7498 24.6906C73.5008 24.6906 74.1048 24.5276 74.5608 24.1996C75.0188 23.8726 75.3148 23.4186 75.4558 22.8386H77.7258C77.5108 23.9986 76.9718 24.9056 76.1058 25.5596C75.2428 26.2146 74.1348 26.5426 72.7818 26.5426Z" fill="#F86338"/>
<path fill-rule="evenodd" clip-rule="evenodd" d="M83.3293 26.5425C82.5553 26.5425 81.8613 26.3655 81.2443 26.0115C80.6253 25.6565 80.1373 25.1655 79.7783 24.5375C79.4183 23.9095 79.2393 23.1825 79.2393 22.3555C79.2393 21.5295 79.4213 20.8025 79.7863 20.1745C80.1513 19.5465 80.6423 19.0555 81.2593 18.7015C81.8763 18.3465 82.5723 18.1695 83.3443 18.1695C84.1073 18.1695 84.7963 18.3465 85.4143 18.7015C86.0313 19.0555 86.5193 19.5465 86.8783 20.1745C87.2383 20.8025 87.4183 21.5295 87.4183 22.3555C87.4183 23.1825 87.2383 23.9095 86.8783 24.5375C86.5193 25.1655 86.0283 25.6565 85.4063 26.0115C84.7833 26.3655 84.0903 26.5425 83.3293 26.5425ZM83.3443 19.9565C82.7973 19.9565 82.3283 20.1585 81.9363 20.5605C81.5433 20.9635 81.3483 21.5615 81.3483 22.3555C81.3483 23.1505 81.5433 23.7485 81.9363 24.1515C82.3283 24.5535 82.7913 24.7545 83.3293 24.7545C83.8653 24.7545 84.3323 24.5535 84.7293 24.1515C85.1263 23.7485 85.3253 23.1505 85.3253 22.3555C85.3253 21.5615 85.1263 20.9635 84.7293 20.5605C84.3323 20.1585 83.8713 19.9565 83.3443 19.9565Z" fill="#F86338"/>
<path d="M99.1394 18.1699C98.5594 18.1699 98.0264 18.2979 97.5374 18.5559C97.0484 18.8139 96.6604 19.1629 96.3694 19.6029C95.8554 18.6479 94.9804 18.1699 93.7454 18.1699C93.1874 18.1699 92.6964 18.2849 92.2724 18.5159C91.8484 18.7469 91.5074 19.0549 91.2494 19.4419L91.0734 18.3629H89.2534V26.3489H91.3144V22.2269C91.3144 21.4979 91.4834 20.9289 91.8214 20.5209C92.1604 20.1129 92.6024 19.9089 93.1504 19.9089C93.7074 19.9089 94.1204 20.0909 94.3894 20.4559C94.6584 20.8209 94.7914 21.3469 94.7914 22.0339V26.3489H96.8534V22.2269C96.8534 21.4979 97.0224 20.9289 97.3604 20.5209C97.6984 20.1129 98.1464 19.9089 98.7044 19.9089C99.2514 19.9089 99.6574 20.0909 99.9204 20.4559C100.183 20.8209 100.315 21.3469 100.315 22.0339V26.3489H102.375V21.8409C102.375 20.6389 102.096 19.7259 101.538 19.1039C100.98 18.4819 100.18 18.1699 99.1394 18.1699Z" fill="#F86338"/>
<path fill-rule="evenodd" clip-rule="evenodd" d="M111.086 18.7171C111.676 19.0821 112.143 19.5811 112.487 20.2141C112.83 20.8481 113.002 21.5671 113.002 22.3721C113.002 23.1771 112.83 23.8931 112.487 24.5211C112.143 25.1491 111.676 25.6431 111.086 26.0031C110.495 26.3621 109.825 26.5421 109.074 26.5421C108.472 26.5421 107.947 26.4301 107.495 26.2041C107.045 25.9791 106.68 25.6621 106.401 25.2541V29.8911H104.34V18.3631H106.175L106.401 19.5061C106.659 19.1521 106.999 18.8411 107.423 18.5721C107.847 18.3041 108.398 18.1701 109.074 18.1701C109.825 18.1701 110.495 18.3521 111.086 18.7171ZM108.639 24.7391C109.293 24.7391 109.835 24.5191 110.265 24.0791C110.695 23.6391 110.91 23.0701 110.91 22.3721C110.91 21.6741 110.695 21.1001 110.265 20.6491C109.835 20.1991 109.293 19.9731 108.639 19.9731C107.973 19.9731 107.428 20.1961 107.004 20.6411C106.58 21.0871 106.369 21.6581 106.369 22.3561C106.369 23.0541 106.58 23.6251 107.004 24.0711C107.428 24.5161 107.973 24.7391 108.639 24.7391Z" fill="#F86338"/>
<path fill-rule="evenodd" clip-rule="evenodd" d="M118.075 21.6315C116.915 21.6315 116.045 21.8625 115.466 22.3235C114.886 22.7855 114.596 23.3865 114.596 24.1265C114.596 24.5675 114.704 24.9695 114.918 25.3345C115.133 25.6995 115.46 25.9925 115.901 26.2125C116.34 26.4325 116.905 26.5425 117.591 26.5425C118.256 26.5425 118.801 26.4025 119.226 26.1235C119.65 25.8445 119.98 25.4905 120.216 25.0605L120.409 26.3495H122.164V21.4385C122.164 20.3975 121.836 19.5925 121.182 19.0225C120.527 18.4545 119.63 18.1695 118.493 18.1695C117.828 18.1695 117.226 18.2855 116.69 18.5165C116.153 18.7475 115.715 19.0775 115.377 19.5065C115.039 19.9355 114.843 20.4395 114.789 21.0195H116.802C116.877 20.6335 117.071 20.3405 117.382 20.1425C117.693 19.9435 118.058 19.8445 118.477 19.8445C118.938 19.8445 119.325 19.9735 119.636 20.2305C119.948 20.4885 120.103 20.8905 120.103 21.4385V21.6315H118.075ZM119.435 24.3525C119.107 24.7385 118.649 24.9325 118.058 24.9325C117.671 24.9325 117.361 24.8465 117.124 24.6745C116.888 24.5025 116.77 24.2615 116.77 23.9505C116.77 23.6605 116.888 23.4155 117.124 23.2175C117.361 23.0195 117.752 22.9195 118.3 22.9195H120.055C119.969 23.4885 119.762 23.9665 119.435 24.3525Z" fill="#F86338"/>
<path d="M131.954 21.8411V26.3491H129.892V22.0341C129.892 21.3471 129.753 20.8211 129.475 20.4561C129.195 20.0911 128.76 19.9091 128.17 19.9091C127.591 19.9091 127.115 20.1131 126.745 20.5201C126.375 20.9291 126.189 21.4971 126.189 22.2271V26.3491H124.129V18.3631H125.948L126.109 19.7151C126.355 19.2431 126.713 18.8681 127.18 18.5881C127.646 18.3091 128.196 18.1701 128.83 18.1701C129.817 18.1701 130.585 18.4811 131.133 19.1031C131.68 19.7261 131.954 20.6391 131.954 21.8411Z" fill="#F86338"/>
<path d="M136.494 25.8179L134.642 29.8919H136.832L141.904 18.3629H139.714L137.38 23.9829L135.141 18.3629H132.903L136.011 25.8179H136.494Z" fill="#F86338"/>
<path d="M67.0178 34.3994H75.6648V36.0574H72.3628V45.6704H70.3028V36.0574H67.0178V34.3994Z" fill="#F86338"/>
<path fill-rule="evenodd" clip-rule="evenodd" d="M81.6704 38.0067C81.0694 37.6627 80.3764 37.4917 79.5934 37.4917C78.7554 37.4917 78.0294 37.6707 77.4124 38.0307C76.7934 38.3897 76.3114 38.8917 75.9624 39.5357C75.6134 40.1807 75.4394 40.9147 75.4394 41.7417C75.4394 42.5577 75.6164 43.2767 75.9704 43.8997C76.3254 44.5227 76.8134 45.0047 77.4354 45.3487C78.0584 45.6927 78.7724 45.8647 79.5774 45.8647C80.2214 45.8647 80.7974 45.7447 81.3084 45.5087C81.8184 45.2727 82.2464 44.9487 82.5964 44.5357C82.9454 44.1217 83.1944 43.6627 83.3444 43.1587H81.2514C81.1124 43.4597 80.9004 43.7037 80.6164 43.8917C80.3304 44.0787 79.9794 44.1727 79.5614 44.1727C79.0024 44.1727 78.5284 43.9947 78.1364 43.6417C77.7444 43.2877 77.5274 42.7997 77.4844 42.1767H83.5544C83.5644 42.0357 83.5734 41.9037 83.5784 41.7747C83.5834 41.6457 83.5864 41.5227 83.5864 41.4037C83.5864 40.6727 83.4164 40.0107 83.0784 39.4147C82.7414 38.8197 82.2714 38.3507 81.6704 38.0067ZM77.5164 40.8877C77.6234 40.3097 77.8704 39.8757 78.2564 39.5927C78.6434 39.3077 79.0884 39.1647 79.5934 39.1647C80.1194 39.1647 80.5594 39.3217 80.9134 39.6317C81.2674 39.9447 81.4604 40.3627 81.4934 40.8877H77.5164Z" fill="#F86338"/>
<path d="M88.2553 40.5186L90.2683 37.6846H92.4903L89.5763 41.6766L92.4903 45.6706H90.2683L88.2553 42.8366L86.2273 45.6706H84.0213L86.9193 41.6766L84.0213 37.6846H86.2273L88.2553 40.5186Z" fill="#F86338"/>
<path d="M96.6599 35.542H94.8409L94.5989 37.685H93.2299V39.407H94.5989V42.886C94.5989 43.927 94.8509 44.651 95.3549 45.058C95.8599 45.466 96.5309 45.671 97.3679 45.671H98.7689V43.915H97.7709C97.3629 43.915 97.0759 43.843 96.9099 43.698C96.7429 43.554 96.6599 43.288 96.6599 42.901V39.407H98.8169V37.685H96.6599V35.542Z" fill="#F86338"/>
<path d="M104.468 34.3994H106.53V44.0594H111.521V45.6704H104.468V34.3994Z" fill="#F86338"/>
<path fill-rule="evenodd" clip-rule="evenodd" d="M118.856 38.0227C118.238 37.6687 117.549 37.4917 116.786 37.4917C116.014 37.4917 115.318 37.6687 114.701 38.0227C114.084 38.3757 113.593 38.8677 113.228 39.4947C112.863 40.1237 112.681 40.8507 112.681 41.6767C112.681 42.5047 112.86 43.2317 113.22 43.8587C113.579 44.4877 114.067 44.9777 114.686 45.3327C115.303 45.6867 115.997 45.8647 116.771 45.8647C117.532 45.8647 118.225 45.6867 118.848 45.3327C119.47 44.9777 119.961 44.4877 120.32 43.8587C120.68 43.2317 120.86 42.5047 120.86 41.6767C120.86 40.8507 120.68 40.1237 120.32 39.4947C119.961 38.8677 119.473 38.3757 118.856 38.0227ZM118.171 43.4717C117.774 43.8757 117.307 44.0767 116.771 44.0767C116.234 44.0767 115.77 43.8757 115.378 43.4717C114.985 43.0697 114.79 42.4717 114.79 41.6767C114.79 40.8837 114.985 40.2837 115.378 39.8817C115.77 39.4797 116.239 39.2787 116.786 39.2787C117.313 39.2787 117.774 39.4797 118.171 39.8817C118.568 40.2837 118.767 40.8837 118.767 41.6767C118.767 42.4717 118.568 43.0697 118.171 43.4717Z" fill="#F86338"/>
<path fill-rule="evenodd" clip-rule="evenodd" d="M123.822 37.8781C124.305 37.6201 124.89 37.4911 125.577 37.4911C126.028 37.4911 126.446 37.5561 126.833 37.6841H129.86V38.9401L128.491 39.0361C128.706 39.4441 128.813 39.8951 128.813 40.3901C128.813 40.9271 128.684 41.4151 128.427 41.8541C128.17 42.2941 127.797 42.6431 127.307 42.9011C126.819 43.1591 126.242 43.2881 125.577 43.2881C125.19 43.2881 124.831 43.2451 124.498 43.1591L123.902 43.7551C124.085 43.8511 124.332 43.9311 124.643 43.9951C124.954 44.0601 125.459 44.1241 126.157 44.1881C127.22 44.2861 127.992 44.5381 128.475 44.9461C128.958 45.3541 129.2 45.9171 129.2 46.6361C129.2 47.1081 129.071 47.5581 128.813 47.9811C128.555 48.4051 128.158 48.7491 127.622 49.0111C127.085 49.2741 126.398 49.4051 125.561 49.4051C124.423 49.4051 123.506 49.1941 122.807 48.7701C122.11 48.3471 121.762 47.7101 121.762 46.8621C121.762 46.1431 122.11 45.5201 122.807 44.9951C122.593 44.8971 122.408 44.7961 122.252 44.6881C122.096 44.5811 121.96 44.4681 121.842 44.3511V43.9791L123.242 42.4991C122.62 41.9501 122.308 41.2491 122.308 40.3901C122.308 39.8521 122.44 39.3641 122.703 38.9251C122.966 38.4831 123.339 38.1361 123.822 37.8781ZM125.577 41.7101C125.996 41.7101 126.342 41.5971 126.616 41.3721C126.889 41.1451 127.026 40.8231 127.026 40.4051C127.026 39.9871 126.889 39.6651 126.616 39.4381C126.342 39.2141 125.996 39.1011 125.577 39.1011C125.137 39.1011 124.783 39.2141 124.514 39.4381C124.246 39.6651 124.112 39.9871 124.112 40.4051C124.112 40.8231 124.246 41.1451 124.514 41.3721C124.783 41.5971 125.137 41.7101 125.577 41.7101ZM125.738 45.6061C125.298 45.5731 124.89 45.5261 124.514 45.4621C124.203 45.6341 123.98 45.8211 123.846 46.0241C123.712 46.2271 123.645 46.4381 123.645 46.6531C123.645 47.0501 123.83 47.3471 124.2 47.5461C124.571 47.7451 125.024 47.8451 125.561 47.8451C126.076 47.8451 126.495 47.7391 126.817 47.5301C127.138 47.3211 127.3 47.0381 127.3 46.6841C127.3 46.3951 127.195 46.1531 126.986 45.9601C126.776 45.7671 126.36 45.6491 125.738 45.6061Z" fill="#F86338"/>
<path fill-rule="evenodd" clip-rule="evenodd" d="M136.953 38.0227C136.335 37.6687 135.646 37.4917 134.883 37.4917C134.111 37.4917 133.415 37.6687 132.798 38.0227C132.181 38.3757 131.69 38.8677 131.325 39.4947C130.96 40.1237 130.778 40.8507 130.778 41.6767C130.778 42.5047 130.957 43.2317 131.317 43.8587C131.676 44.4877 132.164 44.9777 132.783 45.3327C133.4 45.6867 134.094 45.8647 134.868 45.8647C135.629 45.8647 136.322 45.6867 136.945 45.3327C137.567 44.9777 138.058 44.4877 138.417 43.8587C138.777 43.2317 138.957 42.5047 138.957 41.6767C138.957 40.8507 138.777 40.1237 138.417 39.4947C138.058 38.8677 137.57 38.3757 136.953 38.0227ZM136.268 43.4717C135.871 43.8757 135.404 44.0767 134.868 44.0767C134.331 44.0767 133.867 43.8757 133.475 43.4717C133.082 43.0697 132.887 42.4717 132.887 41.6767C132.887 40.8837 133.082 40.2837 133.475 39.8817C133.867 39.4797 134.336 39.2787 134.883 39.2787C135.41 39.2787 135.871 39.4797 136.268 39.8817C136.665 40.2837 136.864 40.8837 136.864 41.6767C136.864 42.4717 136.665 43.0697 136.268 43.4717Z" fill="#F86338"/>
</svg>
