<svg width="1141" height="578" viewBox="0 0 1141 578" fill="none" xmlns="http://www.w3.org/2000/svg">
<mask id="mask0_1_3" style="mask-type:alpha" maskUnits="userSpaceOnUse" x="-107" y="-30" width="1440" height="640">
<rect x="-107" y="-30" width="1440" height="640" fill="white"/>
</mask>
<g mask="url(#mask0_1_3)">
<path d="M61.8716 0.705501C67.0538 4.73776 71.3909 9.75124 74.6355 15.4597C77.8801 21.1681 79.9685 27.4597 80.7816 33.9753C81.5947 40.4908 81.1165 47.1027 79.3743 53.4335C77.6321 59.7642 74.66 65.6898 70.6277 70.872C66.5955 76.0541 61.582 80.3913 55.8735 83.6358C50.1651 86.8804 43.8735 88.9689 37.3579 89.7819C30.8424 90.595 24.2305 90.1168 17.8997 88.3746C11.569 86.6324 5.64339 83.6603 0.461264 79.628L17.3205 57.9611C19.6573 59.7794 22.3293 61.1196 25.1841 61.9052C28.0388 62.6909 31.0203 62.9065 33.9584 62.5399C36.8965 62.1732 39.7336 61.2315 42.3077 59.7684C44.8818 58.3053 47.1425 56.3495 48.9608 54.0127C50.7791 51.6759 52.1193 49.0039 52.9049 46.1492C53.6905 43.2944 53.9062 40.3129 53.5395 37.3748C53.1729 34.4368 52.2311 31.5997 50.7681 29.0255C49.305 26.4514 47.3492 24.1907 45.0124 22.3724L61.8716 0.705501Z" fill="#36B2F8"/>
<path d="M1140.74 102.782C1138.12 105.395 1135.01 107.467 1131.59 108.879C1128.17 110.291 1124.51 111.016 1120.81 111.012C1117.11 111.008 1113.45 110.276 1110.03 108.856C1106.62 107.437 1103.51 105.359 1100.9 102.74C1098.29 100.121 1096.21 97.0132 1094.8 93.5938C1093.39 90.1743 1092.66 86.5103 1092.67 82.8107C1092.67 79.1112 1093.41 75.4486 1094.82 72.0322C1096.24 68.6158 1098.32 65.5123 1100.94 62.8992L1111.31 73.2882C1110.05 74.54 1109.06 76.0266 1108.38 77.6632C1107.7 79.2997 1107.35 81.0541 1107.35 82.8263C1107.34 84.5985 1107.69 86.3536 1108.37 87.9916C1109.04 89.6296 1110.04 91.1183 1111.29 92.3728C1112.54 93.6272 1114.03 94.6228 1115.66 95.3027C1117.3 95.9826 1119.05 96.3335 1120.83 96.3354C1122.6 96.3373 1124.35 95.9901 1125.99 95.3137C1127.63 94.6372 1129.12 93.6448 1130.37 92.393L1140.74 102.782Z" fill="#36B2F8"/>
<path d="M580.486 478.159C578.655 481.609 576.163 484.664 573.151 487.151C570.139 489.638 566.666 491.507 562.932 492.651C559.198 493.796 555.274 494.194 551.386 493.823C547.498 493.451 543.721 492.317 540.271 490.486C536.821 488.655 533.766 486.162 531.279 483.15C528.792 480.138 526.923 476.666 525.779 472.932C524.634 469.198 524.236 465.274 524.608 461.386C524.979 457.498 526.113 453.721 527.944 450.271L542.083 457.776C541.238 459.369 540.714 461.113 540.543 462.909C540.371 464.704 540.555 466.516 541.084 468.24C541.612 469.965 542.475 471.568 543.624 472.959C544.772 474.35 546.183 475.501 547.776 476.347C549.369 477.192 551.113 477.716 552.909 477.887C554.704 478.059 556.516 477.875 558.24 477.347C559.965 476.818 561.568 475.955 562.959 474.807C564.35 473.658 565.501 472.247 566.347 470.654L580.486 478.159Z" fill="#36B2F8"/>
<circle cx="491.5" cy="73.5" r="19.5" fill="#F86338"/>
<circle cx="1116" cy="366" r="9" fill="#F86338"/>
<circle cx="961" cy="573" r="5" fill="#F86338"/>
<circle cx="16.5" cy="438.5" r="4.5" fill="#F86338"/>
</g>
</svg>
